<svg width="1600" height="504" viewBox="0 0 1600 504" fill="none" xmlns="http://www.w3.org/2000/svg">
<g opacity="0.3">
<mask id="mask0" mask-type="alpha" maskUnits="userSpaceOnUse" x="1377" y="0" width="11" height="11">
<path d="M1382.23 10.425C1385.12 10.425 1387.46 8.09121 1387.46 5.21245C1387.46 2.33368 1385.12 0 1382.23 0C1379.34 0 1377 2.33368 1377 5.21245C1377 8.09121 1379.34 10.425 1382.23 10.425Z" fill="url(#paint0_linear)"/>
</mask>
<g mask="url(#mask0)">
<path d="M1382.23 10.425C1385.12 10.425 1387.46 8.09121 1387.46 5.21245C1387.46 2.33368 1385.12 0 1382.23 0C1379.34 0 1377 2.33368 1377 5.21245C1377 8.09121 1379.34 10.425 1382.23 10.425Z" fill="url(#paint1_linear)"/>
</g>
<mask id="mask1" mask-type="alpha" maskUnits="userSpaceOnUse" x="1407" y="0" width="11" height="11">
<path d="M1412.51 10.425C1415.4 10.425 1417.74 8.09121 1417.74 5.21245C1417.74 2.33368 1415.4 0 1412.51 0C1409.62 0 1407.28 2.33368 1407.28 5.21245C1407.28 8.09121 1409.62 10.425 1412.51 10.425Z" fill="url(#paint2_linear)"/>
</mask>
<g mask="url(#mask1)">
<path d="M1412.51 10.425C1415.4 10.425 1417.74 8.09121 1417.74 5.21245C1417.74 2.33368 1415.4 0 1412.51 0C1409.62 0 1407.28 2.33368 1407.28 5.21245C1407.28 8.09121 1409.62 10.425 1412.51 10.425Z" fill="url(#paint3_linear)"/>
</g>
<mask id="mask2" mask-type="alpha" maskUnits="userSpaceOnUse" x="1437" y="0" width="12" height="11">
<path d="M1442.79 10.425C1445.68 10.425 1448.02 8.09121 1448.02 5.21245C1448.02 2.33368 1445.68 0 1442.79 0C1439.9 0 1437.56 2.33368 1437.56 5.21245C1437.56 8.09121 1439.9 10.425 1442.79 10.425Z" fill="url(#paint4_linear)"/>
</mask>
<g mask="url(#mask2)">
<path d="M1442.79 10.425C1445.68 10.425 1448.02 8.09121 1448.02 5.21245C1448.02 2.33368 1445.68 0 1442.79 0C1439.9 0 1437.56 2.33368 1437.56 5.21245C1437.56 8.09121 1439.9 10.425 1442.79 10.425Z" fill="url(#paint5_linear)"/>
</g>
<mask id="mask3" mask-type="alpha" maskUnits="userSpaceOnUse" x="1467" y="0" width="12" height="11">
<path d="M1473.07 10.425C1475.96 10.425 1478.3 8.09121 1478.3 5.21245C1478.3 2.33368 1475.96 0 1473.07 0C1470.18 0 1467.84 2.33368 1467.84 5.21245C1467.84 8.09121 1470.18 10.425 1473.07 10.425Z" fill="url(#paint6_linear)"/>
</mask>
<g mask="url(#mask3)">
<path d="M1473.07 10.425C1475.96 10.425 1478.3 8.09121 1478.3 5.21245C1478.3 2.33368 1475.96 0 1473.07 0C1470.18 0 1467.84 2.33368 1467.84 5.21245C1467.84 8.09121 1470.18 10.425 1473.07 10.425Z" fill="url(#paint7_linear)"/>
</g>
<mask id="mask4" mask-type="alpha" maskUnits="userSpaceOnUse" x="1498" y="0" width="11" height="11">
<path d="M1503.35 10.425C1506.24 10.425 1508.58 8.09121 1508.58 5.21245C1508.58 2.33368 1506.24 0 1503.35 0C1500.47 0 1498.12 2.33368 1498.12 5.21245C1498.12 8.09121 1500.47 10.425 1503.35 10.425Z" fill="url(#paint8_linear)"/>
</mask>
<g mask="url(#mask4)">
<path d="M1503.35 10.425C1506.24 10.425 1508.58 8.09121 1508.58 5.21245C1508.58 2.33368 1506.24 0 1503.35 0C1500.47 0 1498.12 2.33368 1498.12 5.21245C1498.12 8.09121 1500.47 10.425 1503.35 10.425Z" fill="url(#paint9_linear)"/>
</g>
<mask id="mask5" mask-type="alpha" maskUnits="userSpaceOnUse" x="1377" y="26" width="11" height="11">
<path d="M1382.23 36.5958C1385.12 36.5958 1387.46 34.2621 1387.46 31.3833C1387.46 28.5046 1385.12 26.1709 1382.23 26.1709C1379.34 26.1709 1377 28.5046 1377 31.3833C1377 34.2621 1379.34 36.5958 1382.23 36.5958Z" fill="url(#paint10_linear)"/>
</mask>
<g mask="url(#mask5)">
<path d="M1382.23 36.5958C1385.12 36.5958 1387.46 34.2621 1387.46 31.3833C1387.46 28.5046 1385.12 26.1709 1382.23 26.1709C1379.34 26.1709 1377 28.5046 1377 31.3833C1377 34.2621 1379.34 36.5958 1382.23 36.5958Z" fill="url(#paint11_linear)"/>
</g>
<mask id="mask6" mask-type="alpha" maskUnits="userSpaceOnUse" x="1407" y="26" width="11" height="11">
<path d="M1412.51 36.5958C1415.4 36.5958 1417.74 34.2621 1417.74 31.3833C1417.74 28.5046 1415.4 26.1709 1412.51 26.1709C1409.62 26.1709 1407.28 28.5046 1407.28 31.3833C1407.28 34.2621 1409.62 36.5958 1412.51 36.5958Z" fill="url(#paint12_linear)"/>
</mask>
<g mask="url(#mask6)">
<path d="M1412.51 36.5958C1415.4 36.5958 1417.74 34.2621 1417.74 31.3833C1417.74 28.5046 1415.4 26.1709 1412.51 26.1709C1409.62 26.1709 1407.28 28.5046 1407.28 31.3833C1407.28 34.2621 1409.62 36.5958 1412.51 36.5958Z" fill="url(#paint13_linear)"/>
</g>
<mask id="mask7" mask-type="alpha" maskUnits="userSpaceOnUse" x="1437" y="26" width="12" height="11">
<path d="M1442.79 36.5958C1445.68 36.5958 1448.02 34.2621 1448.02 31.3833C1448.02 28.5046 1445.68 26.1709 1442.79 26.1709C1439.9 26.1709 1437.56 28.5046 1437.56 31.3833C1437.56 34.2621 1439.9 36.5958 1442.79 36.5958Z" fill="url(#paint14_linear)"/>
</mask>
<g mask="url(#mask7)">
<path d="M1442.79 36.5958C1445.68 36.5958 1448.02 34.2621 1448.02 31.3833C1448.02 28.5046 1445.68 26.1709 1442.79 26.1709C1439.9 26.1709 1437.56 28.5046 1437.56 31.3833C1437.56 34.2621 1439.9 36.5958 1442.79 36.5958Z" fill="url(#paint15_linear)"/>
</g>
<mask id="mask8" mask-type="alpha" maskUnits="userSpaceOnUse" x="1467" y="26" width="12" height="11">
<path d="M1473.07 36.5958C1475.96 36.5958 1478.3 34.2621 1478.3 31.3833C1478.3 28.5046 1475.96 26.1709 1473.07 26.1709C1470.18 26.1709 1467.84 28.5046 1467.84 31.3833C1467.84 34.2621 1470.18 36.5958 1473.07 36.5958Z" fill="url(#paint16_linear)"/>
</mask>
<g mask="url(#mask8)">
<path d="M1473.07 36.5958C1475.96 36.5958 1478.3 34.2621 1478.3 31.3833C1478.3 28.5046 1475.96 26.1709 1473.07 26.1709C1470.18 26.1709 1467.84 28.5046 1467.84 31.3833C1467.84 34.2621 1470.18 36.5958 1473.07 36.5958Z" fill="url(#paint17_linear)"/>
</g>
<mask id="mask9" mask-type="alpha" maskUnits="userSpaceOnUse" x="1498" y="26" width="11" height="11">
<path d="M1503.35 36.5958C1506.24 36.5958 1508.58 34.2621 1508.58 31.3833C1508.58 28.5046 1506.24 26.1709 1503.35 26.1709C1500.47 26.1709 1498.12 28.5046 1498.12 31.3833C1498.12 34.2621 1500.47 36.5958 1503.35 36.5958Z" fill="url(#paint18_linear)"/>
</mask>
<g mask="url(#mask9)">
<path d="M1503.35 36.5958C1506.24 36.5958 1508.58 34.2621 1508.58 31.3833C1508.58 28.5046 1506.24 26.1709 1503.35 26.1709C1500.47 26.1709 1498.12 28.5046 1498.12 31.3833C1498.12 34.2621 1500.47 36.5958 1503.35 36.5958Z" fill="url(#paint19_linear)"/>
</g>
<mask id="mask10" mask-type="alpha" maskUnits="userSpaceOnUse" x="1377" y="52" width="11" height="11">
<path d="M1382.23 62.7126C1385.12 62.7126 1387.46 60.3789 1387.46 57.5001C1387.46 54.6213 1385.12 52.2876 1382.23 52.2876C1379.34 52.2876 1377 54.6213 1377 57.5001C1377 60.3789 1379.34 62.7126 1382.23 62.7126Z" fill="url(#paint20_linear)"/>
</mask>
<g mask="url(#mask10)">
<path d="M1382.23 62.7126C1385.12 62.7126 1387.46 60.3789 1387.46 57.5001C1387.46 54.6213 1385.12 52.2876 1382.23 52.2876C1379.34 52.2876 1377 54.6213 1377 57.5001C1377 60.3789 1379.34 62.7126 1382.23 62.7126Z" fill="url(#paint21_linear)"/>
</g>
<mask id="mask11" mask-type="alpha" maskUnits="userSpaceOnUse" x="1407" y="52" width="11" height="11">
<path d="M1412.51 62.7126C1415.4 62.7126 1417.74 60.3789 1417.74 57.5001C1417.74 54.6213 1415.4 52.2876 1412.51 52.2876C1409.62 52.2876 1407.28 54.6213 1407.28 57.5001C1407.28 60.3789 1409.62 62.7126 1412.51 62.7126Z" fill="url(#paint22_linear)"/>
</mask>
<g mask="url(#mask11)">
<path d="M1412.51 62.7126C1415.4 62.7126 1417.74 60.3789 1417.74 57.5001C1417.74 54.6213 1415.4 52.2876 1412.51 52.2876C1409.62 52.2876 1407.28 54.6213 1407.28 57.5001C1407.28 60.3789 1409.62 62.7126 1412.51 62.7126Z" fill="url(#paint23_linear)"/>
</g>
<mask id="mask12" mask-type="alpha" maskUnits="userSpaceOnUse" x="1437" y="52" width="12" height="11">
<path d="M1442.79 62.7126C1445.68 62.7126 1448.02 60.3789 1448.02 57.5001C1448.02 54.6213 1445.68 52.2876 1442.79 52.2876C1439.9 52.2876 1437.56 54.6213 1437.56 57.5001C1437.56 60.3789 1439.9 62.7126 1442.79 62.7126Z" fill="url(#paint24_linear)"/>
</mask>
<g mask="url(#mask12)">
<path d="M1442.79 62.7126C1445.68 62.7126 1448.02 60.3789 1448.02 57.5001C1448.02 54.6213 1445.68 52.2876 1442.79 52.2876C1439.9 52.2876 1437.56 54.6213 1437.56 57.5001C1437.56 60.3789 1439.9 62.7126 1442.79 62.7126Z" fill="url(#paint25_linear)"/>
</g>
<mask id="mask13" mask-type="alpha" maskUnits="userSpaceOnUse" x="1467" y="52" width="12" height="11">
<path d="M1473.07 62.7126C1475.96 62.7126 1478.3 60.3789 1478.3 57.5001C1478.3 54.6213 1475.96 52.2876 1473.07 52.2876C1470.18 52.2876 1467.84 54.6213 1467.84 57.5001C1467.84 60.3789 1470.18 62.7126 1473.07 62.7126Z" fill="url(#paint26_linear)"/>
</mask>
<g mask="url(#mask13)">
<path d="M1473.07 62.7126C1475.96 62.7126 1478.3 60.3789 1478.3 57.5001C1478.3 54.6213 1475.96 52.2876 1473.07 52.2876C1470.18 52.2876 1467.84 54.6213 1467.84 57.5001C1467.84 60.3789 1470.18 62.7126 1473.07 62.7126Z" fill="url(#paint27_linear)"/>
</g>
<mask id="mask14" mask-type="alpha" maskUnits="userSpaceOnUse" x="1498" y="52" width="11" height="11">
<path d="M1503.35 62.7126C1506.24 62.7126 1508.58 60.3789 1508.58 57.5001C1508.58 54.6213 1506.24 52.2876 1503.35 52.2876C1500.47 52.2876 1498.12 54.6213 1498.12 57.5001C1498.12 60.3789 1500.47 62.7126 1503.35 62.7126Z" fill="url(#paint28_linear)"/>
</mask>
<g mask="url(#mask14)">
<path d="M1503.35 62.7126C1506.24 62.7126 1508.58 60.3789 1508.58 57.5001C1508.58 54.6213 1506.24 52.2876 1503.35 52.2876C1500.47 52.2876 1498.12 54.6213 1498.12 57.5001C1498.12 60.3789 1500.47 62.7126 1503.35 62.7126Z" fill="url(#paint29_linear)"/>
</g>
<mask id="mask15" mask-type="alpha" maskUnits="userSpaceOnUse" x="1377" y="78" width="11" height="11">
<path d="M1382.23 88.8835C1385.12 88.8835 1387.46 86.5497 1387.46 83.6709C1387.46 80.7922 1385.12 78.4585 1382.23 78.4585C1379.34 78.4585 1377 80.7922 1377 83.6709C1377 86.5497 1379.34 88.8835 1382.23 88.8835Z" fill="url(#paint30_linear)"/>
</mask>
<g mask="url(#mask15)">
<path d="M1382.23 88.8835C1385.12 88.8835 1387.46 86.5497 1387.46 83.6709C1387.46 80.7922 1385.12 78.4585 1382.23 78.4585C1379.34 78.4585 1377 80.7922 1377 83.6709C1377 86.5497 1379.34 88.8835 1382.23 88.8835Z" fill="url(#paint31_linear)"/>
</g>
<mask id="mask16" mask-type="alpha" maskUnits="userSpaceOnUse" x="1407" y="78" width="11" height="11">
<path d="M1412.51 88.8835C1415.4 88.8835 1417.74 86.5497 1417.74 83.6709C1417.74 80.7922 1415.4 78.4585 1412.51 78.4585C1409.62 78.4585 1407.28 80.7922 1407.28 83.6709C1407.28 86.5497 1409.62 88.8835 1412.51 88.8835Z" fill="url(#paint32_linear)"/>
</mask>
<g mask="url(#mask16)">
<path d="M1412.51 88.8835C1415.4 88.8835 1417.74 86.5497 1417.74 83.6709C1417.74 80.7922 1415.4 78.4585 1412.51 78.4585C1409.62 78.4585 1407.28 80.7922 1407.28 83.6709C1407.28 86.5497 1409.62 88.8835 1412.51 88.8835Z" fill="url(#paint33_linear)"/>
</g>
<mask id="mask17" mask-type="alpha" maskUnits="userSpaceOnUse" x="1437" y="78" width="12" height="11">
<path d="M1442.79 88.8835C1445.68 88.8835 1448.02 86.5497 1448.02 83.6709C1448.02 80.7922 1445.68 78.4585 1442.79 78.4585C1439.9 78.4585 1437.56 80.7922 1437.56 83.6709C1437.56 86.5497 1439.9 88.8835 1442.79 88.8835Z" fill="url(#paint34_linear)"/>
</mask>
<g mask="url(#mask17)">
<path d="M1442.79 88.8835C1445.68 88.8835 1448.02 86.5497 1448.02 83.6709C1448.02 80.7922 1445.68 78.4585 1442.79 78.4585C1439.9 78.4585 1437.56 80.7922 1437.56 83.6709C1437.56 86.5497 1439.9 88.8835 1442.79 88.8835Z" fill="url(#paint35_linear)"/>
</g>
<mask id="mask18" mask-type="alpha" maskUnits="userSpaceOnUse" x="1467" y="78" width="12" height="11">
<path d="M1473.07 88.8835C1475.96 88.8835 1478.3 86.5497 1478.3 83.6709C1478.3 80.7922 1475.96 78.4585 1473.07 78.4585C1470.18 78.4585 1467.84 80.7922 1467.84 83.6709C1467.84 86.5497 1470.18 88.8835 1473.07 88.8835Z" fill="url(#paint36_linear)"/>
</mask>
<g mask="url(#mask18)">
<path d="M1473.07 88.8835C1475.96 88.8835 1478.3 86.5497 1478.3 83.6709C1478.3 80.7922 1475.96 78.4585 1473.07 78.4585C1470.18 78.4585 1467.84 80.7922 1467.84 83.6709C1467.84 86.5497 1470.18 88.8835 1473.07 88.8835Z" fill="url(#paint37_linear)"/>
</g>
<mask id="mask19" mask-type="alpha" maskUnits="userSpaceOnUse" x="1498" y="78" width="11" height="11">
<path d="M1503.35 88.8835C1506.24 88.8835 1508.58 86.5497 1508.58 83.6709C1508.58 80.7922 1506.24 78.4585 1503.35 78.4585C1500.47 78.4585 1498.12 80.7922 1498.12 83.6709C1498.12 86.5497 1500.47 88.8835 1503.35 88.8835Z" fill="url(#paint38_linear)"/>
</mask>
<g mask="url(#mask19)">
<path d="M1503.35 88.8835C1506.24 88.8835 1508.58 86.5497 1508.58 83.6709C1508.58 80.7922 1506.24 78.4585 1503.35 78.4585C1500.47 78.4585 1498.12 80.7922 1498.12 83.6709C1498.12 86.5497 1500.47 88.8835 1503.35 88.8835Z" fill="url(#paint39_linear)"/>
</g>
<mask id="mask20" mask-type="alpha" maskUnits="userSpaceOnUse" x="1377" y="104" width="11" height="12">
<path d="M1382.23 115C1385.12 115 1387.46 112.666 1387.46 109.788C1387.46 106.909 1385.12 104.575 1382.23 104.575C1379.34 104.575 1377 106.909 1377 109.788C1377 112.666 1379.34 115 1382.23 115Z" fill="url(#paint40_linear)"/>
</mask>
<g mask="url(#mask20)">
<path d="M1382.23 115C1385.12 115 1387.46 112.666 1387.46 109.788C1387.46 106.909 1385.12 104.575 1382.23 104.575C1379.34 104.575 1377 106.909 1377 109.788C1377 112.666 1379.34 115 1382.23 115Z" fill="url(#paint41_linear)"/>
</g>
<mask id="mask21" mask-type="alpha" maskUnits="userSpaceOnUse" x="1407" y="104" width="11" height="12">
<path d="M1412.51 115C1415.4 115 1417.74 112.666 1417.74 109.788C1417.74 106.909 1415.4 104.575 1412.51 104.575C1409.62 104.575 1407.28 106.909 1407.28 109.788C1407.28 112.666 1409.62 115 1412.51 115Z" fill="url(#paint42_linear)"/>
</mask>
<g mask="url(#mask21)">
<path d="M1412.51 115C1415.4 115 1417.74 112.666 1417.74 109.788C1417.74 106.909 1415.4 104.575 1412.51 104.575C1409.62 104.575 1407.28 106.909 1407.28 109.788C1407.28 112.666 1409.62 115 1412.51 115Z" fill="url(#paint43_linear)"/>
</g>
<mask id="mask22" mask-type="alpha" maskUnits="userSpaceOnUse" x="1437" y="104" width="12" height="12">
<path d="M1442.79 115C1445.68 115 1448.02 112.666 1448.02 109.788C1448.02 106.909 1445.68 104.575 1442.79 104.575C1439.9 104.575 1437.56 106.909 1437.56 109.788C1437.56 112.666 1439.9 115 1442.79 115Z" fill="url(#paint44_linear)"/>
</mask>
<g mask="url(#mask22)">
<path d="M1442.79 115C1445.68 115 1448.02 112.666 1448.02 109.788C1448.02 106.909 1445.68 104.575 1442.79 104.575C1439.9 104.575 1437.56 106.909 1437.56 109.788C1437.56 112.666 1439.9 115 1442.79 115Z" fill="url(#paint45_linear)"/>
</g>
<mask id="mask23" mask-type="alpha" maskUnits="userSpaceOnUse" x="1467" y="104" width="12" height="12">
<path d="M1473.07 115C1475.96 115 1478.3 112.666 1478.3 109.788C1478.3 106.909 1475.96 104.575 1473.07 104.575C1470.18 104.575 1467.84 106.909 1467.84 109.788C1467.84 112.666 1470.18 115 1473.07 115Z" fill="url(#paint46_linear)"/>
</mask>
<g mask="url(#mask23)">
<path d="M1473.07 115C1475.96 115 1478.3 112.666 1478.3 109.788C1478.3 106.909 1475.96 104.575 1473.07 104.575C1470.18 104.575 1467.84 106.909 1467.84 109.788C1467.84 112.666 1470.18 115 1473.07 115Z" fill="url(#paint47_linear)"/>
</g>
<mask id="mask24" mask-type="alpha" maskUnits="userSpaceOnUse" x="1498" y="104" width="11" height="12">
<path d="M1503.35 115C1506.24 115 1508.58 112.666 1508.58 109.788C1508.58 106.909 1506.24 104.575 1503.35 104.575C1500.47 104.575 1498.12 106.909 1498.12 109.788C1498.12 112.666 1500.47 115 1503.35 115Z" fill="url(#paint48_linear)"/>
</mask>
<g mask="url(#mask24)">
<path d="M1503.35 115C1506.24 115 1508.58 112.666 1508.58 109.788C1508.58 106.909 1506.24 104.575 1503.35 104.575C1500.47 104.575 1498.12 106.909 1498.12 109.788C1498.12 112.666 1500.47 115 1503.35 115Z" fill="url(#paint49_linear)"/>
</g>
</g>
<rect y="72" width="1600" height="432" fill="url(#paint50_linear)"/>
<g opacity="0.26">
<mask id="mask25" mask-type="alpha" maskUnits="userSpaceOnUse" x="11" y="408" width="11" height="11">
<path d="M16.5095 418.425C19.397 418.425 21.7378 416.091 21.7378 413.212C21.7378 410.334 19.397 408 16.5095 408C13.6219 408 11.2811 410.334 11.2811 413.212C11.2811 416.091 13.6219 418.425 16.5095 418.425Z" fill="url(#paint51_linear)"/>
</mask>
<g mask="url(#mask25)">
<path d="M16.5095 418.425C19.397 418.425 21.7378 416.091 21.7378 413.212C21.7378 410.334 19.397 408 16.5095 408C13.6219 408 11.2811 410.334 11.2811 413.212C11.2811 416.091 13.6219 418.425 16.5095 418.425Z" fill="url(#paint52_linear)"/>
</g>
<mask id="mask26" mask-type="alpha" maskUnits="userSpaceOnUse" x="41" y="408" width="12" height="11">
<path d="M46.7905 418.425C49.6781 418.425 52.0189 416.091 52.0189 413.212C52.0189 410.334 49.6781 408 46.7905 408C43.903 408 41.5621 410.334 41.5621 413.212C41.5621 416.091 43.903 418.425 46.7905 418.425Z" fill="url(#paint53_linear)"/>
</mask>
<g mask="url(#mask26)">
<path d="M46.7905 418.425C49.6781 418.425 52.0189 416.091 52.0189 413.212C52.0189 410.334 49.6781 408 46.7905 408C43.903 408 41.5621 410.334 41.5621 413.212C41.5621 416.091 43.903 418.425 46.7905 418.425Z" fill="url(#paint54_linear)"/>
</g>
<mask id="mask27" mask-type="alpha" maskUnits="userSpaceOnUse" x="71" y="408" width="12" height="11">
<path d="M77.0716 418.425C79.9592 418.425 82.3 416.091 82.3 413.212C82.3 410.334 79.9592 408 77.0716 408C74.184 408 71.8432 410.334 71.8432 413.212C71.8432 416.091 74.184 418.425 77.0716 418.425Z" fill="url(#paint55_linear)"/>
</mask>
<g mask="url(#mask27)">
<path d="M77.0716 418.425C79.9592 418.425 82.3 416.091 82.3 413.212C82.3 410.334 79.9592 408 77.0716 408C74.184 408 71.8432 410.334 71.8432 413.212C71.8432 416.091 74.184 418.425 77.0716 418.425Z" fill="url(#paint56_linear)"/>
</g>
<mask id="mask28" mask-type="alpha" maskUnits="userSpaceOnUse" x="102" y="408" width="11" height="11">
<path d="M107.353 418.425C110.24 418.425 112.581 416.091 112.581 413.212C112.581 410.334 110.24 408 107.353 408C104.465 408 102.124 410.334 102.124 413.212C102.124 416.091 104.465 418.425 107.353 418.425Z" fill="url(#paint57_linear)"/>
</mask>
<g mask="url(#mask28)">
<path d="M107.353 418.425C110.24 418.425 112.581 416.091 112.581 413.212C112.581 410.334 110.24 408 107.353 408C104.465 408 102.124 410.334 102.124 413.212C102.124 416.091 104.465 418.425 107.353 418.425Z" fill="url(#paint58_linear)"/>
</g>
<mask id="mask29" mask-type="alpha" maskUnits="userSpaceOnUse" x="11" y="434" width="11" height="11">
<path d="M16.5095 444.596C19.397 444.596 21.7378 442.262 21.7378 439.383C21.7378 436.505 19.397 434.171 16.5095 434.171C13.6219 434.171 11.2811 436.505 11.2811 439.383C11.2811 442.262 13.6219 444.596 16.5095 444.596Z" fill="url(#paint59_linear)"/>
</mask>
<g mask="url(#mask29)">
<path d="M16.5095 444.596C19.397 444.596 21.7378 442.262 21.7378 439.383C21.7378 436.505 19.397 434.171 16.5095 434.171C13.6219 434.171 11.2811 436.505 11.2811 439.383C11.2811 442.262 13.6219 444.596 16.5095 444.596Z" fill="url(#paint60_linear)"/>
</g>
<mask id="mask30" mask-type="alpha" maskUnits="userSpaceOnUse" x="41" y="434" width="12" height="11">
<path d="M46.7905 444.596C49.6781 444.596 52.0189 442.262 52.0189 439.383C52.0189 436.505 49.6781 434.171 46.7905 434.171C43.903 434.171 41.5621 436.505 41.5621 439.383C41.5621 442.262 43.903 444.596 46.7905 444.596Z" fill="url(#paint61_linear)"/>
</mask>
<g mask="url(#mask30)">
<path d="M46.7905 444.596C49.6781 444.596 52.0189 442.262 52.0189 439.383C52.0189 436.505 49.6781 434.171 46.7905 434.171C43.903 434.171 41.5621 436.505 41.5621 439.383C41.5621 442.262 43.903 444.596 46.7905 444.596Z" fill="url(#paint62_linear)"/>
</g>
<mask id="mask31" mask-type="alpha" maskUnits="userSpaceOnUse" x="71" y="434" width="12" height="11">
<path d="M77.0716 444.596C79.9592 444.596 82.3 442.262 82.3 439.383C82.3 436.505 79.9592 434.171 77.0716 434.171C74.184 434.171 71.8432 436.505 71.8432 439.383C71.8432 442.262 74.184 444.596 77.0716 444.596Z" fill="url(#paint63_linear)"/>
</mask>
<g mask="url(#mask31)">
<path d="M77.0716 444.596C79.9592 444.596 82.3 442.262 82.3 439.383C82.3 436.505 79.9592 434.171 77.0716 434.171C74.184 434.171 71.8432 436.505 71.8432 439.383C71.8432 442.262 74.184 444.596 77.0716 444.596Z" fill="url(#paint64_linear)"/>
</g>
<mask id="mask32" mask-type="alpha" maskUnits="userSpaceOnUse" x="102" y="434" width="11" height="11">
<path d="M107.353 444.596C110.24 444.596 112.581 442.262 112.581 439.383C112.581 436.505 110.24 434.171 107.353 434.171C104.465 434.171 102.124 436.505 102.124 439.383C102.124 442.262 104.465 444.596 107.353 444.596Z" fill="url(#paint65_linear)"/>
</mask>
<g mask="url(#mask32)">
<path d="M107.353 444.596C110.24 444.596 112.581 442.262 112.581 439.383C112.581 436.505 110.24 434.171 107.353 434.171C104.465 434.171 102.124 436.505 102.124 439.383C102.124 442.262 104.465 444.596 107.353 444.596Z" fill="url(#paint66_linear)"/>
</g>
<mask id="mask33" mask-type="alpha" maskUnits="userSpaceOnUse" x="11" y="460" width="11" height="11">
<path d="M16.5095 470.713C19.397 470.713 21.7378 468.379 21.7378 465.5C21.7378 462.621 19.397 460.288 16.5095 460.288C13.6219 460.288 11.2811 462.621 11.2811 465.5C11.2811 468.379 13.6219 470.713 16.5095 470.713Z" fill="url(#paint67_linear)"/>
</mask>
<g mask="url(#mask33)">
<path d="M16.5095 470.713C19.397 470.713 21.7378 468.379 21.7378 465.5C21.7378 462.621 19.397 460.288 16.5095 460.288C13.6219 460.288 11.2811 462.621 11.2811 465.5C11.2811 468.379 13.6219 470.713 16.5095 470.713Z" fill="url(#paint68_linear)"/>
</g>
<mask id="mask34" mask-type="alpha" maskUnits="userSpaceOnUse" x="41" y="460" width="12" height="11">
<path d="M46.7905 470.713C49.6781 470.713 52.0189 468.379 52.0189 465.5C52.0189 462.621 49.6781 460.288 46.7905 460.288C43.903 460.288 41.5621 462.621 41.5621 465.5C41.5621 468.379 43.903 470.713 46.7905 470.713Z" fill="url(#paint69_linear)"/>
</mask>
<g mask="url(#mask34)">
<path d="M46.7905 470.713C49.6781 470.713 52.0189 468.379 52.0189 465.5C52.0189 462.621 49.6781 460.288 46.7905 460.288C43.903 460.288 41.5621 462.621 41.5621 465.5C41.5621 468.379 43.903 470.713 46.7905 470.713Z" fill="url(#paint70_linear)"/>
</g>
<mask id="mask35" mask-type="alpha" maskUnits="userSpaceOnUse" x="71" y="460" width="12" height="11">
<path d="M77.0716 470.713C79.9592 470.713 82.3 468.379 82.3 465.5C82.3 462.621 79.9592 460.288 77.0716 460.288C74.184 460.288 71.8432 462.621 71.8432 465.5C71.8432 468.379 74.184 470.713 77.0716 470.713Z" fill="url(#paint71_linear)"/>
</mask>
<g mask="url(#mask35)">
<path d="M77.0716 470.713C79.9592 470.713 82.3 468.379 82.3 465.5C82.3 462.621 79.9592 460.288 77.0716 460.288C74.184 460.288 71.8432 462.621 71.8432 465.5C71.8432 468.379 74.184 470.713 77.0716 470.713Z" fill="url(#paint72_linear)"/>
</g>
<mask id="mask36" mask-type="alpha" maskUnits="userSpaceOnUse" x="102" y="460" width="11" height="11">
<path d="M107.353 470.713C110.24 470.713 112.581 468.379 112.581 465.5C112.581 462.621 110.24 460.288 107.353 460.288C104.465 460.288 102.124 462.621 102.124 465.5C102.124 468.379 104.465 470.713 107.353 470.713Z" fill="url(#paint73_linear)"/>
</mask>
<g mask="url(#mask36)">
<path d="M107.353 470.713C110.24 470.713 112.581 468.379 112.581 465.5C112.581 462.621 110.24 460.288 107.353 460.288C104.465 460.288 102.124 462.621 102.124 465.5C102.124 468.379 104.465 470.713 107.353 470.713Z" fill="url(#paint74_linear)"/>
</g>
<mask id="mask37" mask-type="alpha" maskUnits="userSpaceOnUse" x="11" y="486" width="11" height="11">
<path d="M16.5095 496.883C19.397 496.883 21.7378 494.55 21.7378 491.671C21.7378 488.792 19.397 486.458 16.5095 486.458C13.6219 486.458 11.2811 488.792 11.2811 491.671C11.2811 494.55 13.6219 496.883 16.5095 496.883Z" fill="url(#paint75_linear)"/>
</mask>
<g mask="url(#mask37)">
<path d="M16.5095 496.883C19.397 496.883 21.7378 494.55 21.7378 491.671C21.7378 488.792 19.397 486.458 16.5095 486.458C13.6219 486.458 11.2811 488.792 11.2811 491.671C11.2811 494.55 13.6219 496.883 16.5095 496.883Z" fill="url(#paint76_linear)"/>
</g>
<mask id="mask38" mask-type="alpha" maskUnits="userSpaceOnUse" x="41" y="486" width="12" height="11">
<path d="M46.7905 496.883C49.6781 496.883 52.0189 494.55 52.0189 491.671C52.0189 488.792 49.6781 486.458 46.7905 486.458C43.903 486.458 41.5621 488.792 41.5621 491.671C41.5621 494.55 43.903 496.883 46.7905 496.883Z" fill="url(#paint77_linear)"/>
</mask>
<g mask="url(#mask38)">
<path d="M46.7905 496.883C49.6781 496.883 52.0189 494.55 52.0189 491.671C52.0189 488.792 49.6781 486.458 46.7905 486.458C43.903 486.458 41.5621 488.792 41.5621 491.671C41.5621 494.55 43.903 496.883 46.7905 496.883Z" fill="url(#paint78_linear)"/>
</g>
<mask id="mask39" mask-type="alpha" maskUnits="userSpaceOnUse" x="71" y="486" width="12" height="11">
<path d="M77.0716 496.883C79.9592 496.883 82.3 494.55 82.3 491.671C82.3 488.792 79.9592 486.458 77.0716 486.458C74.184 486.458 71.8432 488.792 71.8432 491.671C71.8432 494.55 74.184 496.883 77.0716 496.883Z" fill="url(#paint79_linear)"/>
</mask>
<g mask="url(#mask39)">
<path d="M77.0716 496.883C79.9592 496.883 82.3 494.55 82.3 491.671C82.3 488.792 79.9592 486.458 77.0716 486.458C74.184 486.458 71.8432 488.792 71.8432 491.671C71.8432 494.55 74.184 496.883 77.0716 496.883Z" fill="url(#paint80_linear)"/>
</g>
<mask id="mask40" mask-type="alpha" maskUnits="userSpaceOnUse" x="102" y="486" width="11" height="11">
<path d="M107.353 496.883C110.24 496.883 112.581 494.55 112.581 491.671C112.581 488.792 110.24 486.458 107.353 486.458C104.465 486.458 102.124 488.792 102.124 491.671C102.124 494.55 104.465 496.883 107.353 496.883Z" fill="url(#paint81_linear)"/>
</mask>
<g mask="url(#mask40)">
<path d="M107.353 496.883C110.24 496.883 112.581 494.55 112.581 491.671C112.581 488.792 110.24 486.458 107.353 486.458C104.465 486.458 102.124 488.792 102.124 491.671C102.124 494.55 104.465 496.883 107.353 496.883Z" fill="url(#paint82_linear)"/>
</g>
</g>
<defs>
<linearGradient id="paint0_linear" x1="1432" y1="131.134" x2="1360.59" y2="-50.67" gradientUnits="userSpaceOnUse">
<stop/>
<stop offset="1" stop-color="white"/>
</linearGradient>
<linearGradient id="paint1_linear" x1="1432" y1="131.134" x2="1360.59" y2="-50.67" gradientUnits="userSpaceOnUse">
<stop stop-color="#97C3F9"/>
<stop offset="1" stop-color="#93C1F9"/>
</linearGradient>
<linearGradient id="paint2_linear" x1="1458.2" y1="120.843" x2="1386.8" y2="-60.9613" gradientUnits="userSpaceOnUse">
<stop/>
<stop offset="1" stop-color="white"/>
</linearGradient>
<linearGradient id="paint3_linear" x1="1458.2" y1="120.843" x2="1386.8" y2="-60.9613" gradientUnits="userSpaceOnUse">
<stop stop-color="#97C3F9"/>
<stop offset="1" stop-color="#93C1F9"/>
</linearGradient>
<linearGradient id="paint4_linear" x1="1484.4" y1="110.551" x2="1413" y2="-71.2526" gradientUnits="userSpaceOnUse">
<stop/>
<stop offset="1" stop-color="white"/>
</linearGradient>
<linearGradient id="paint5_linear" x1="1484.4" y1="110.551" x2="1413" y2="-71.2526" gradientUnits="userSpaceOnUse">
<stop stop-color="#97C3F9"/>
<stop offset="1" stop-color="#93C1F9"/>
</linearGradient>
<linearGradient id="paint6_linear" x1="1510.61" y1="100.259" x2="1439.21" y2="-81.5444" gradientUnits="userSpaceOnUse">
<stop/>
<stop offset="1" stop-color="white"/>
</linearGradient>
<linearGradient id="paint7_linear" x1="1510.61" y1="100.259" x2="1439.21" y2="-81.5444" gradientUnits="userSpaceOnUse">
<stop stop-color="#97C3F9"/>
<stop offset="1" stop-color="#93C1F9"/>
</linearGradient>
<linearGradient id="paint8_linear" x1="1536.81" y1="89.9679" x2="1465.41" y2="-91.8359" gradientUnits="userSpaceOnUse">
<stop/>
<stop offset="1" stop-color="white"/>
</linearGradient>
<linearGradient id="paint9_linear" x1="1536.81" y1="89.9679" x2="1465.41" y2="-91.8359" gradientUnits="userSpaceOnUse">
<stop stop-color="#97C3F9"/>
<stop offset="1" stop-color="#93C1F9"/>
</linearGradient>
<linearGradient id="paint10_linear" x1="1423.05" y1="134.645" x2="1351.65" y2="-47.1572" gradientUnits="userSpaceOnUse">
<stop/>
<stop offset="1" stop-color="white"/>
</linearGradient>
<linearGradient id="paint11_linear" x1="1423.05" y1="134.645" x2="1351.65" y2="-47.1572" gradientUnits="userSpaceOnUse">
<stop stop-color="#97C3F9"/>
<stop offset="1" stop-color="#93C1F9"/>
</linearGradient>
<linearGradient id="paint12_linear" x1="1449.26" y1="124.354" x2="1377.86" y2="-57.4491" gradientUnits="userSpaceOnUse">
<stop/>
<stop offset="1" stop-color="white"/>
</linearGradient>
<linearGradient id="paint13_linear" x1="1449.26" y1="124.354" x2="1377.86" y2="-57.4491" gradientUnits="userSpaceOnUse">
<stop stop-color="#97C3F9"/>
<stop offset="1" stop-color="#93C1F9"/>
</linearGradient>
<linearGradient id="paint14_linear" x1="1475.46" y1="114.062" x2="1404.06" y2="-67.7404" gradientUnits="userSpaceOnUse">
<stop/>
<stop offset="1" stop-color="white"/>
</linearGradient>
<linearGradient id="paint15_linear" x1="1475.46" y1="114.062" x2="1404.06" y2="-67.7404" gradientUnits="userSpaceOnUse">
<stop stop-color="#97C3F9"/>
<stop offset="1" stop-color="#93C1F9"/>
</linearGradient>
<linearGradient id="paint16_linear" x1="1501.67" y1="103.771" x2="1430.27" y2="-78.0318" gradientUnits="userSpaceOnUse">
<stop/>
<stop offset="1" stop-color="white"/>
</linearGradient>
<linearGradient id="paint17_linear" x1="1501.67" y1="103.771" x2="1430.27" y2="-78.0318" gradientUnits="userSpaceOnUse">
<stop stop-color="#97C3F9"/>
<stop offset="1" stop-color="#93C1F9"/>
</linearGradient>
<linearGradient id="paint18_linear" x1="1527.87" y1="93.4793" x2="1456.47" y2="-88.3232" gradientUnits="userSpaceOnUse">
<stop/>
<stop offset="1" stop-color="white"/>
</linearGradient>
<linearGradient id="paint19_linear" x1="1527.87" y1="93.4793" x2="1456.47" y2="-88.3232" gradientUnits="userSpaceOnUse">
<stop stop-color="#97C3F9"/>
<stop offset="1" stop-color="#93C1F9"/>
</linearGradient>
<linearGradient id="paint20_linear" x1="1414.11" y1="138.158" x2="1342.71" y2="-43.6457" gradientUnits="userSpaceOnUse">
<stop/>
<stop offset="1" stop-color="white"/>
</linearGradient>
<linearGradient id="paint21_linear" x1="1414.11" y1="138.158" x2="1342.71" y2="-43.6457" gradientUnits="userSpaceOnUse">
<stop stop-color="#97C3F9"/>
<stop offset="1" stop-color="#93C1F9"/>
</linearGradient>
<linearGradient id="paint22_linear" x1="1440.32" y1="127.867" x2="1368.91" y2="-53.9373" gradientUnits="userSpaceOnUse">
<stop/>
<stop offset="1" stop-color="white"/>
</linearGradient>
<linearGradient id="paint23_linear" x1="1440.32" y1="127.867" x2="1368.91" y2="-53.9373" gradientUnits="userSpaceOnUse">
<stop stop-color="#97C3F9"/>
<stop offset="1" stop-color="#93C1F9"/>
</linearGradient>
<linearGradient id="paint24_linear" x1="1466.52" y1="117.575" x2="1395.12" y2="-64.2287" gradientUnits="userSpaceOnUse">
<stop/>
<stop offset="1" stop-color="white"/>
</linearGradient>
<linearGradient id="paint25_linear" x1="1466.52" y1="117.575" x2="1395.12" y2="-64.2287" gradientUnits="userSpaceOnUse">
<stop stop-color="#97C3F9"/>
<stop offset="1" stop-color="#93C1F9"/>
</linearGradient>
<linearGradient id="paint26_linear" x1="1492.72" y1="107.283" x2="1421.32" y2="-74.5204" gradientUnits="userSpaceOnUse">
<stop/>
<stop offset="1" stop-color="white"/>
</linearGradient>
<linearGradient id="paint27_linear" x1="1492.72" y1="107.283" x2="1421.32" y2="-74.5204" gradientUnits="userSpaceOnUse">
<stop stop-color="#97C3F9"/>
<stop offset="1" stop-color="#93C1F9"/>
</linearGradient>
<linearGradient id="paint28_linear" x1="1518.93" y1="96.992" x2="1447.53" y2="-84.8119" gradientUnits="userSpaceOnUse">
<stop/>
<stop offset="1" stop-color="white"/>
</linearGradient>
<linearGradient id="paint29_linear" x1="1518.93" y1="96.992" x2="1447.53" y2="-84.8119" gradientUnits="userSpaceOnUse">
<stop stop-color="#97C3F9"/>
<stop offset="1" stop-color="#93C1F9"/>
</linearGradient>
<linearGradient id="paint30_linear" x1="1405.17" y1="141.67" x2="1333.77" y2="-40.1338" gradientUnits="userSpaceOnUse">
<stop/>
<stop offset="1" stop-color="white"/>
</linearGradient>
<linearGradient id="paint31_linear" x1="1405.17" y1="141.67" x2="1333.77" y2="-40.1338" gradientUnits="userSpaceOnUse">
<stop stop-color="#97C3F9"/>
<stop offset="1" stop-color="#93C1F9"/>
</linearGradient>
<linearGradient id="paint32_linear" x1="1431.37" y1="131.379" x2="1359.97" y2="-50.4253" gradientUnits="userSpaceOnUse">
<stop/>
<stop offset="1" stop-color="white"/>
</linearGradient>
<linearGradient id="paint33_linear" x1="1431.37" y1="131.379" x2="1359.97" y2="-50.4253" gradientUnits="userSpaceOnUse">
<stop stop-color="#97C3F9"/>
<stop offset="1" stop-color="#93C1F9"/>
</linearGradient>
<linearGradient id="paint34_linear" x1="1457.58" y1="121.087" x2="1386.18" y2="-60.7167" gradientUnits="userSpaceOnUse">
<stop/>
<stop offset="1" stop-color="white"/>
</linearGradient>
<linearGradient id="paint35_linear" x1="1457.58" y1="121.087" x2="1386.18" y2="-60.7167" gradientUnits="userSpaceOnUse">
<stop stop-color="#97C3F9"/>
<stop offset="1" stop-color="#93C1F9"/>
</linearGradient>
<linearGradient id="paint36_linear" x1="1483.78" y1="110.796" x2="1412.38" y2="-71.0083" gradientUnits="userSpaceOnUse">
<stop/>
<stop offset="1" stop-color="white"/>
</linearGradient>
<linearGradient id="paint37_linear" x1="1483.78" y1="110.796" x2="1412.38" y2="-71.0083" gradientUnits="userSpaceOnUse">
<stop stop-color="#97C3F9"/>
<stop offset="1" stop-color="#93C1F9"/>
</linearGradient>
<linearGradient id="paint38_linear" x1="1509.99" y1="100.504" x2="1438.58" y2="-81.2999" gradientUnits="userSpaceOnUse">
<stop/>
<stop offset="1" stop-color="white"/>
</linearGradient>
<linearGradient id="paint39_linear" x1="1509.99" y1="100.504" x2="1438.58" y2="-81.2999" gradientUnits="userSpaceOnUse">
<stop stop-color="#97C3F9"/>
<stop offset="1" stop-color="#93C1F9"/>
</linearGradient>
<linearGradient id="paint40_linear" x1="1396.23" y1="145.182" x2="1324.82" y2="-36.6217" gradientUnits="userSpaceOnUse">
<stop/>
<stop offset="1" stop-color="white"/>
</linearGradient>
<linearGradient id="paint41_linear" x1="1396.23" y1="145.182" x2="1324.82" y2="-36.6217" gradientUnits="userSpaceOnUse">
<stop stop-color="#97C3F9"/>
<stop offset="1" stop-color="#93C1F9"/>
</linearGradient>
<linearGradient id="paint42_linear" x1="1422.43" y1="134.891" x2="1351.03" y2="-46.9132" gradientUnits="userSpaceOnUse">
<stop/>
<stop offset="1" stop-color="white"/>
</linearGradient>
<linearGradient id="paint43_linear" x1="1422.43" y1="134.891" x2="1351.03" y2="-46.9132" gradientUnits="userSpaceOnUse">
<stop stop-color="#97C3F9"/>
<stop offset="1" stop-color="#93C1F9"/>
</linearGradient>
<linearGradient id="paint44_linear" x1="1448.64" y1="124.599" x2="1377.23" y2="-57.2045" gradientUnits="userSpaceOnUse">
<stop/>
<stop offset="1" stop-color="white"/>
</linearGradient>
<linearGradient id="paint45_linear" x1="1448.64" y1="124.599" x2="1377.23" y2="-57.2045" gradientUnits="userSpaceOnUse">
<stop stop-color="#97C3F9"/>
<stop offset="1" stop-color="#93C1F9"/>
</linearGradient>
<linearGradient id="paint46_linear" x1="1474.84" y1="114.308" x2="1403.44" y2="-67.4962" gradientUnits="userSpaceOnUse">
<stop/>
<stop offset="1" stop-color="white"/>
</linearGradient>
<linearGradient id="paint47_linear" x1="1474.84" y1="114.308" x2="1403.44" y2="-67.4962" gradientUnits="userSpaceOnUse">
<stop stop-color="#97C3F9"/>
<stop offset="1" stop-color="#93C1F9"/>
</linearGradient>
<linearGradient id="paint48_linear" x1="1501.04" y1="104.016" x2="1429.64" y2="-77.7877" gradientUnits="userSpaceOnUse">
<stop/>
<stop offset="1" stop-color="white"/>
</linearGradient>
<linearGradient id="paint49_linear" x1="1501.04" y1="104.016" x2="1429.64" y2="-77.7877" gradientUnits="userSpaceOnUse">
<stop stop-color="#97C3F9"/>
<stop offset="1" stop-color="#93C1F9"/>
</linearGradient>
<linearGradient id="paint50_linear" x1="1429" y1="30" x2="1422.26" y2="448.89" gradientUnits="userSpaceOnUse">
<stop stop-color="#67C3F3"/>
<stop offset="1" stop-color="#5A98F2"/>
</linearGradient>
<linearGradient id="paint51_linear" x1="66.2771" y1="539.134" x2="-5.12449" y2="357.33" gradientUnits="userSpaceOnUse">
<stop stop-color="white"/>
<stop offset="1" stop-color="white"/>
</linearGradient>
<linearGradient id="paint52_linear" x1="66.2771" y1="539.134" x2="-5.12449" y2="357.33" gradientUnits="userSpaceOnUse">
<stop stop-color="white"/>
<stop offset="1" stop-color="white"/>
</linearGradient>
<linearGradient id="paint53_linear" x1="96.5582" y1="539.134" x2="25.1566" y2="357.33" gradientUnits="userSpaceOnUse">
<stop stop-color="white"/>
<stop offset="1" stop-color="white"/>
</linearGradient>
<linearGradient id="paint54_linear" x1="96.5582" y1="539.134" x2="25.1566" y2="357.33" gradientUnits="userSpaceOnUse">
<stop stop-color="white"/>
<stop offset="1" stop-color="white"/>
</linearGradient>
<linearGradient id="paint55_linear" x1="126.839" y1="539.134" x2="55.4376" y2="357.33" gradientUnits="userSpaceOnUse">
<stop stop-color="white"/>
<stop offset="1" stop-color="white"/>
</linearGradient>
<linearGradient id="paint56_linear" x1="126.839" y1="539.134" x2="55.4376" y2="357.33" gradientUnits="userSpaceOnUse">
<stop stop-color="white"/>
<stop offset="1" stop-color="white"/>
</linearGradient>
<linearGradient id="paint57_linear" x1="157.12" y1="539.134" x2="85.7187" y2="357.33" gradientUnits="userSpaceOnUse">
<stop stop-color="white"/>
<stop offset="1" stop-color="white"/>
</linearGradient>
<linearGradient id="paint58_linear" x1="157.12" y1="539.134" x2="85.7187" y2="357.33" gradientUnits="userSpaceOnUse">
<stop stop-color="white"/>
<stop offset="1" stop-color="white"/>
</linearGradient>
<linearGradient id="paint59_linear" x1="66.2771" y1="565.303" x2="-5.12327" y2="383.501" gradientUnits="userSpaceOnUse">
<stop stop-color="white"/>
<stop offset="1" stop-color="white"/>
</linearGradient>
<linearGradient id="paint60_linear" x1="66.2771" y1="565.303" x2="-5.12327" y2="383.501" gradientUnits="userSpaceOnUse">
<stop stop-color="white"/>
<stop offset="1" stop-color="white"/>
</linearGradient>
<linearGradient id="paint61_linear" x1="96.5582" y1="565.303" x2="25.1578" y2="383.501" gradientUnits="userSpaceOnUse">
<stop stop-color="white"/>
<stop offset="1" stop-color="white"/>
</linearGradient>
<linearGradient id="paint62_linear" x1="96.5582" y1="565.303" x2="25.1578" y2="383.501" gradientUnits="userSpaceOnUse">
<stop stop-color="white"/>
<stop offset="1" stop-color="white"/>
</linearGradient>
<linearGradient id="paint63_linear" x1="126.839" y1="565.303" x2="55.4389" y2="383.501" gradientUnits="userSpaceOnUse">
<stop stop-color="white"/>
<stop offset="1" stop-color="white"/>
</linearGradient>
<linearGradient id="paint64_linear" x1="126.839" y1="565.303" x2="55.4389" y2="383.501" gradientUnits="userSpaceOnUse">
<stop stop-color="white"/>
<stop offset="1" stop-color="white"/>
</linearGradient>
<linearGradient id="paint65_linear" x1="157.12" y1="565.303" x2="85.7199" y2="383.501" gradientUnits="userSpaceOnUse">
<stop stop-color="white"/>
<stop offset="1" stop-color="white"/>
</linearGradient>
<linearGradient id="paint66_linear" x1="157.12" y1="565.303" x2="85.7199" y2="383.501" gradientUnits="userSpaceOnUse">
<stop stop-color="white"/>
<stop offset="1" stop-color="white"/>
</linearGradient>
<linearGradient id="paint67_linear" x1="66.2771" y1="591.421" x2="-5.12449" y2="409.618" gradientUnits="userSpaceOnUse">
<stop stop-color="white"/>
<stop offset="1" stop-color="white"/>
</linearGradient>
<linearGradient id="paint68_linear" x1="66.2771" y1="591.421" x2="-5.12449" y2="409.618" gradientUnits="userSpaceOnUse">
<stop stop-color="white"/>
<stop offset="1" stop-color="white"/>
</linearGradient>
<linearGradient id="paint69_linear" x1="96.5582" y1="591.421" x2="25.1566" y2="409.618" gradientUnits="userSpaceOnUse">
<stop stop-color="white"/>
<stop offset="1" stop-color="white"/>
</linearGradient>
<linearGradient id="paint70_linear" x1="96.5582" y1="591.421" x2="25.1566" y2="409.618" gradientUnits="userSpaceOnUse">
<stop stop-color="white"/>
<stop offset="1" stop-color="white"/>
</linearGradient>
<linearGradient id="paint71_linear" x1="126.839" y1="591.421" x2="55.4376" y2="409.618" gradientUnits="userSpaceOnUse">
<stop stop-color="white"/>
<stop offset="1" stop-color="white"/>
</linearGradient>
<linearGradient id="paint72_linear" x1="126.839" y1="591.421" x2="55.4376" y2="409.618" gradientUnits="userSpaceOnUse">
<stop stop-color="white"/>
<stop offset="1" stop-color="white"/>
</linearGradient>
<linearGradient id="paint73_linear" x1="157.12" y1="591.421" x2="85.7187" y2="409.618" gradientUnits="userSpaceOnUse">
<stop stop-color="white"/>
<stop offset="1" stop-color="white"/>
</linearGradient>
<linearGradient id="paint74_linear" x1="157.12" y1="591.421" x2="85.7187" y2="409.618" gradientUnits="userSpaceOnUse">
<stop stop-color="white"/>
<stop offset="1" stop-color="white"/>
</linearGradient>
<linearGradient id="paint75_linear" x1="66.2771" y1="617.592" x2="-5.12449" y2="435.788" gradientUnits="userSpaceOnUse">
<stop stop-color="white"/>
<stop offset="1" stop-color="white"/>
</linearGradient>
<linearGradient id="paint76_linear" x1="66.2771" y1="617.592" x2="-5.12449" y2="435.788" gradientUnits="userSpaceOnUse">
<stop stop-color="white"/>
<stop offset="1" stop-color="white"/>
</linearGradient>
<linearGradient id="paint77_linear" x1="96.5582" y1="617.592" x2="25.1566" y2="435.788" gradientUnits="userSpaceOnUse">
<stop stop-color="white"/>
<stop offset="1" stop-color="white"/>
</linearGradient>
<linearGradient id="paint78_linear" x1="96.5582" y1="617.592" x2="25.1566" y2="435.788" gradientUnits="userSpaceOnUse">
<stop stop-color="white"/>
<stop offset="1" stop-color="white"/>
</linearGradient>
<linearGradient id="paint79_linear" x1="126.839" y1="617.592" x2="55.4376" y2="435.788" gradientUnits="userSpaceOnUse">
<stop stop-color="white"/>
<stop offset="1" stop-color="white"/>
</linearGradient>
<linearGradient id="paint80_linear" x1="126.839" y1="617.592" x2="55.4376" y2="435.788" gradientUnits="userSpaceOnUse">
<stop stop-color="white"/>
<stop offset="1" stop-color="white"/>
</linearGradient>
<linearGradient id="paint81_linear" x1="157.12" y1="617.592" x2="85.7187" y2="435.788" gradientUnits="userSpaceOnUse">
<stop stop-color="white"/>
<stop offset="1" stop-color="white"/>
</linearGradient>
<linearGradient id="paint82_linear" x1="157.12" y1="617.592" x2="85.7187" y2="435.788" gradientUnits="userSpaceOnUse">
<stop stop-color="white"/>
<stop offset="1" stop-color="white"/>
</linearGradient>
</defs>
</svg>
